<mxfile host="app.diagrams.net" modified="2023-10-13T19:31:23.865Z" agent="Mozilla/5.0 (Macintosh; Intel Mac OS X 10_15_7) AppleWebKit/537.36 (KHTML, like Gecko) Chrome/117.0.0.0 Safari/537.36" etag="iPCH_Iu6AW_NW0A7B1A0" version="21.8.1" type="device" pages="2">
  <diagram name="RNN arch" id="jpieH2Bf0oKgEngMXHe8">
    <mxGraphModel dx="1187" dy="826" grid="1" gridSize="10" guides="1" tooltips="1" connect="1" arrows="1" fold="1" page="1" pageScale="1" pageWidth="1100" pageHeight="850" math="1" shadow="0">
      <root>
        <mxCell id="0" />
        <mxCell id="1" parent="0" />
        <mxCell id="CWwib9qpC7JzlGGH_xl9-3" style="edgeStyle=orthogonalEdgeStyle;rounded=0;orthogonalLoop=1;jettySize=auto;html=1;exitX=0.5;exitY=0;exitDx=0;exitDy=0;entryX=0.5;entryY=1;entryDx=0;entryDy=0;" edge="1" parent="1" source="CWwib9qpC7JzlGGH_xl9-1" target="CWwib9qpC7JzlGGH_xl9-2">
          <mxGeometry relative="1" as="geometry" />
        </mxCell>
        <mxCell id="CWwib9qpC7JzlGGH_xl9-49" style="edgeStyle=orthogonalEdgeStyle;rounded=0;orthogonalLoop=1;jettySize=auto;html=1;exitX=0.25;exitY=0;exitDx=0;exitDy=0;" edge="1" parent="1" source="CWwib9qpC7JzlGGH_xl9-1">
          <mxGeometry relative="1" as="geometry">
            <mxPoint x="137.20408163265301" y="490" as="targetPoint" />
          </mxGeometry>
        </mxCell>
        <mxCell id="CWwib9qpC7JzlGGH_xl9-1" value="hidden state" style="rounded=0;whiteSpace=wrap;html=1;" vertex="1" parent="1">
          <mxGeometry x="107" y="430" width="120" height="60" as="geometry" />
        </mxCell>
        <mxCell id="CWwib9qpC7JzlGGH_xl9-2" value="output" style="ellipse;whiteSpace=wrap;html=1;aspect=fixed;" vertex="1" parent="1">
          <mxGeometry x="127" y="310" width="80" height="80" as="geometry" />
        </mxCell>
        <mxCell id="CWwib9qpC7JzlGGH_xl9-4" value="W" style="text;html=1;align=center;verticalAlign=middle;resizable=0;points=[];autosize=1;strokeColor=none;fillColor=none;" vertex="1" parent="1">
          <mxGeometry x="162" y="398" width="30" height="30" as="geometry" />
        </mxCell>
        <mxCell id="CWwib9qpC7JzlGGH_xl9-6" value="V" style="text;html=1;align=center;verticalAlign=middle;resizable=0;points=[];autosize=1;strokeColor=none;fillColor=none;" vertex="1" parent="1">
          <mxGeometry x="62" y="450" width="30" height="30" as="geometry" />
        </mxCell>
        <mxCell id="CWwib9qpC7JzlGGH_xl9-8" style="edgeStyle=orthogonalEdgeStyle;rounded=0;orthogonalLoop=1;jettySize=auto;html=1;exitX=0.5;exitY=0;exitDx=0;exitDy=0;" edge="1" parent="1" source="CWwib9qpC7JzlGGH_xl9-7">
          <mxGeometry relative="1" as="geometry">
            <mxPoint x="166.8813559322033" y="490.0000000000001" as="targetPoint" />
          </mxGeometry>
        </mxCell>
        <mxCell id="CWwib9qpC7JzlGGH_xl9-7" value="x" style="ellipse;whiteSpace=wrap;html=1;aspect=fixed;" vertex="1" parent="1">
          <mxGeometry x="127" y="530" width="80" height="80" as="geometry" />
        </mxCell>
        <mxCell id="CWwib9qpC7JzlGGH_xl9-9" value="U" style="text;html=1;align=center;verticalAlign=middle;resizable=0;points=[];autosize=1;strokeColor=none;fillColor=none;" vertex="1" parent="1">
          <mxGeometry x="162" y="498" width="30" height="30" as="geometry" />
        </mxCell>
        <mxCell id="CWwib9qpC7JzlGGH_xl9-10" value="" style="shape=flexArrow;endArrow=classic;html=1;rounded=0;" edge="1" parent="1">
          <mxGeometry width="50" height="50" relative="1" as="geometry">
            <mxPoint x="247" y="460" as="sourcePoint" />
            <mxPoint x="327" y="460" as="targetPoint" />
          </mxGeometry>
        </mxCell>
        <mxCell id="CWwib9qpC7JzlGGH_xl9-11" value="unfold" style="text;html=1;align=center;verticalAlign=middle;resizable=0;points=[];autosize=1;strokeColor=none;fillColor=none;" vertex="1" parent="1">
          <mxGeometry x="257" y="420" width="60" height="30" as="geometry" />
        </mxCell>
        <mxCell id="CWwib9qpC7JzlGGH_xl9-12" style="edgeStyle=orthogonalEdgeStyle;rounded=0;orthogonalLoop=1;jettySize=auto;html=1;exitX=0.5;exitY=0;exitDx=0;exitDy=0;entryX=0.5;entryY=1;entryDx=0;entryDy=0;" edge="1" parent="1" source="CWwib9qpC7JzlGGH_xl9-14" target="CWwib9qpC7JzlGGH_xl9-15">
          <mxGeometry relative="1" as="geometry" />
        </mxCell>
        <mxCell id="CWwib9qpC7JzlGGH_xl9-41" style="edgeStyle=orthogonalEdgeStyle;rounded=0;orthogonalLoop=1;jettySize=auto;html=1;exitX=1;exitY=0.5;exitDx=0;exitDy=0;" edge="1" parent="1" source="CWwib9qpC7JzlGGH_xl9-14" target="CWwib9qpC7JzlGGH_xl9-23">
          <mxGeometry relative="1" as="geometry" />
        </mxCell>
        <mxCell id="CWwib9qpC7JzlGGH_xl9-14" value="`h_(t-1)`" style="rounded=0;whiteSpace=wrap;html=1;" vertex="1" parent="1">
          <mxGeometry x="430" y="430" width="120" height="60" as="geometry" />
        </mxCell>
        <mxCell id="CWwib9qpC7JzlGGH_xl9-15" value="`o_(t-1)`" style="ellipse;whiteSpace=wrap;html=1;aspect=fixed;" vertex="1" parent="1">
          <mxGeometry x="450" y="310" width="80" height="80" as="geometry" />
        </mxCell>
        <mxCell id="CWwib9qpC7JzlGGH_xl9-16" value="W" style="text;html=1;align=center;verticalAlign=middle;resizable=0;points=[];autosize=1;strokeColor=none;fillColor=none;" vertex="1" parent="1">
          <mxGeometry x="485" y="398" width="30" height="30" as="geometry" />
        </mxCell>
        <mxCell id="CWwib9qpC7JzlGGH_xl9-18" style="edgeStyle=orthogonalEdgeStyle;rounded=0;orthogonalLoop=1;jettySize=auto;html=1;exitX=0.5;exitY=0;exitDx=0;exitDy=0;" edge="1" parent="1" source="CWwib9qpC7JzlGGH_xl9-19">
          <mxGeometry relative="1" as="geometry">
            <mxPoint x="489.8813559322033" y="490.0000000000001" as="targetPoint" />
          </mxGeometry>
        </mxCell>
        <mxCell id="CWwib9qpC7JzlGGH_xl9-19" value="`x_(t-1)`" style="ellipse;whiteSpace=wrap;html=1;aspect=fixed;" vertex="1" parent="1">
          <mxGeometry x="450" y="530" width="80" height="80" as="geometry" />
        </mxCell>
        <mxCell id="CWwib9qpC7JzlGGH_xl9-20" value="U" style="text;html=1;align=center;verticalAlign=middle;resizable=0;points=[];autosize=1;strokeColor=none;fillColor=none;" vertex="1" parent="1">
          <mxGeometry x="485" y="498" width="30" height="30" as="geometry" />
        </mxCell>
        <mxCell id="CWwib9qpC7JzlGGH_xl9-21" style="edgeStyle=orthogonalEdgeStyle;rounded=0;orthogonalLoop=1;jettySize=auto;html=1;exitX=0.5;exitY=0;exitDx=0;exitDy=0;entryX=0.5;entryY=1;entryDx=0;entryDy=0;" edge="1" parent="1" source="CWwib9qpC7JzlGGH_xl9-23" target="CWwib9qpC7JzlGGH_xl9-24">
          <mxGeometry relative="1" as="geometry" />
        </mxCell>
        <mxCell id="CWwib9qpC7JzlGGH_xl9-42" style="edgeStyle=orthogonalEdgeStyle;rounded=0;orthogonalLoop=1;jettySize=auto;html=1;exitX=1;exitY=0.5;exitDx=0;exitDy=0;" edge="1" parent="1" source="CWwib9qpC7JzlGGH_xl9-23" target="CWwib9qpC7JzlGGH_xl9-32">
          <mxGeometry relative="1" as="geometry" />
        </mxCell>
        <mxCell id="CWwib9qpC7JzlGGH_xl9-23" value="`h_(t)`" style="rounded=0;whiteSpace=wrap;html=1;" vertex="1" parent="1">
          <mxGeometry x="663" y="430" width="120" height="60" as="geometry" />
        </mxCell>
        <mxCell id="CWwib9qpC7JzlGGH_xl9-24" value="`o_t`" style="ellipse;whiteSpace=wrap;html=1;aspect=fixed;" vertex="1" parent="1">
          <mxGeometry x="683" y="310" width="80" height="80" as="geometry" />
        </mxCell>
        <mxCell id="CWwib9qpC7JzlGGH_xl9-25" value="W" style="text;html=1;align=center;verticalAlign=middle;resizable=0;points=[];autosize=1;strokeColor=none;fillColor=none;" vertex="1" parent="1">
          <mxGeometry x="718" y="398" width="30" height="30" as="geometry" />
        </mxCell>
        <mxCell id="CWwib9qpC7JzlGGH_xl9-27" style="edgeStyle=orthogonalEdgeStyle;rounded=0;orthogonalLoop=1;jettySize=auto;html=1;exitX=0.5;exitY=0;exitDx=0;exitDy=0;" edge="1" parent="1" source="CWwib9qpC7JzlGGH_xl9-28">
          <mxGeometry relative="1" as="geometry">
            <mxPoint x="722.8813559322033" y="490.0000000000001" as="targetPoint" />
          </mxGeometry>
        </mxCell>
        <mxCell id="CWwib9qpC7JzlGGH_xl9-28" value="`x_t`" style="ellipse;whiteSpace=wrap;html=1;aspect=fixed;" vertex="1" parent="1">
          <mxGeometry x="683" y="530" width="80" height="80" as="geometry" />
        </mxCell>
        <mxCell id="CWwib9qpC7JzlGGH_xl9-29" value="U" style="text;html=1;align=center;verticalAlign=middle;resizable=0;points=[];autosize=1;strokeColor=none;fillColor=none;" vertex="1" parent="1">
          <mxGeometry x="718" y="498" width="30" height="30" as="geometry" />
        </mxCell>
        <mxCell id="CWwib9qpC7JzlGGH_xl9-30" style="edgeStyle=orthogonalEdgeStyle;rounded=0;orthogonalLoop=1;jettySize=auto;html=1;exitX=0.5;exitY=0;exitDx=0;exitDy=0;entryX=0.5;entryY=1;entryDx=0;entryDy=0;" edge="1" parent="1" source="CWwib9qpC7JzlGGH_xl9-32" target="CWwib9qpC7JzlGGH_xl9-33">
          <mxGeometry relative="1" as="geometry" />
        </mxCell>
        <mxCell id="CWwib9qpC7JzlGGH_xl9-43" style="edgeStyle=orthogonalEdgeStyle;rounded=0;orthogonalLoop=1;jettySize=auto;html=1;exitX=1;exitY=0.5;exitDx=0;exitDy=0;" edge="1" parent="1" source="CWwib9qpC7JzlGGH_xl9-32">
          <mxGeometry relative="1" as="geometry">
            <mxPoint x="1050" y="460.28571428571445" as="targetPoint" />
          </mxGeometry>
        </mxCell>
        <mxCell id="CWwib9qpC7JzlGGH_xl9-32" value="`h_(t+1)`" style="rounded=0;whiteSpace=wrap;html=1;" vertex="1" parent="1">
          <mxGeometry x="883" y="430" width="120" height="60" as="geometry" />
        </mxCell>
        <mxCell id="CWwib9qpC7JzlGGH_xl9-33" value="`o_(t+1)`" style="ellipse;whiteSpace=wrap;html=1;aspect=fixed;" vertex="1" parent="1">
          <mxGeometry x="903" y="310" width="80" height="80" as="geometry" />
        </mxCell>
        <mxCell id="CWwib9qpC7JzlGGH_xl9-34" value="W" style="text;html=1;align=center;verticalAlign=middle;resizable=0;points=[];autosize=1;strokeColor=none;fillColor=none;" vertex="1" parent="1">
          <mxGeometry x="938" y="398" width="30" height="30" as="geometry" />
        </mxCell>
        <mxCell id="CWwib9qpC7JzlGGH_xl9-36" style="edgeStyle=orthogonalEdgeStyle;rounded=0;orthogonalLoop=1;jettySize=auto;html=1;exitX=0.5;exitY=0;exitDx=0;exitDy=0;" edge="1" parent="1" source="CWwib9qpC7JzlGGH_xl9-37">
          <mxGeometry relative="1" as="geometry">
            <mxPoint x="942.8813559322033" y="490.0000000000001" as="targetPoint" />
          </mxGeometry>
        </mxCell>
        <mxCell id="CWwib9qpC7JzlGGH_xl9-37" value="`x_(t+1)`" style="ellipse;whiteSpace=wrap;html=1;aspect=fixed;" vertex="1" parent="1">
          <mxGeometry x="903" y="530" width="80" height="80" as="geometry" />
        </mxCell>
        <mxCell id="CWwib9qpC7JzlGGH_xl9-38" value="U" style="text;html=1;align=center;verticalAlign=middle;resizable=0;points=[];autosize=1;strokeColor=none;fillColor=none;" vertex="1" parent="1">
          <mxGeometry x="938" y="498" width="30" height="30" as="geometry" />
        </mxCell>
        <mxCell id="CWwib9qpC7JzlGGH_xl9-39" value="&lt;b&gt;...&amp;nbsp;&lt;/b&gt;" style="text;html=1;align=center;verticalAlign=middle;resizable=0;points=[];autosize=1;strokeColor=none;fillColor=none;" vertex="1" parent="1">
          <mxGeometry x="330" y="445" width="40" height="30" as="geometry" />
        </mxCell>
        <mxCell id="CWwib9qpC7JzlGGH_xl9-40" value="" style="endArrow=classic;html=1;rounded=0;exitX=1.005;exitY=0.533;exitDx=0;exitDy=0;exitPerimeter=0;entryX=0;entryY=0.5;entryDx=0;entryDy=0;" edge="1" parent="1" source="CWwib9qpC7JzlGGH_xl9-39" target="CWwib9qpC7JzlGGH_xl9-14">
          <mxGeometry width="50" height="50" relative="1" as="geometry">
            <mxPoint x="580" y="490" as="sourcePoint" />
            <mxPoint x="630" y="440" as="targetPoint" />
          </mxGeometry>
        </mxCell>
        <mxCell id="CWwib9qpC7JzlGGH_xl9-44" value="V" style="text;html=1;align=center;verticalAlign=middle;resizable=0;points=[];autosize=1;strokeColor=none;fillColor=none;" vertex="1" parent="1">
          <mxGeometry x="390" y="460" width="30" height="30" as="geometry" />
        </mxCell>
        <mxCell id="CWwib9qpC7JzlGGH_xl9-45" value="V" style="text;html=1;align=center;verticalAlign=middle;resizable=0;points=[];autosize=1;strokeColor=none;fillColor=none;" vertex="1" parent="1">
          <mxGeometry x="590" y="460" width="30" height="30" as="geometry" />
        </mxCell>
        <mxCell id="CWwib9qpC7JzlGGH_xl9-46" value="V" style="text;html=1;align=center;verticalAlign=middle;resizable=0;points=[];autosize=1;strokeColor=none;fillColor=none;" vertex="1" parent="1">
          <mxGeometry x="820" y="460" width="30" height="30" as="geometry" />
        </mxCell>
        <mxCell id="CWwib9qpC7JzlGGH_xl9-47" value="V" style="text;html=1;align=center;verticalAlign=middle;resizable=0;points=[];autosize=1;strokeColor=none;fillColor=none;" vertex="1" parent="1">
          <mxGeometry x="1010" y="460" width="30" height="30" as="geometry" />
        </mxCell>
      </root>
    </mxGraphModel>
  </diagram>
  <diagram id="cwvPEtxxoqnvAztAoYTR" name="name clas. arch">
    <mxGraphModel dx="816" dy="568" grid="1" gridSize="10" guides="1" tooltips="1" connect="1" arrows="1" fold="1" page="1" pageScale="1" pageWidth="1100" pageHeight="850" math="1" shadow="0">
      <root>
        <mxCell id="0" />
        <mxCell id="1" parent="0" />
        <mxCell id="SIeilRmWvHnYZnyjk7Ip-9" style="edgeStyle=orthogonalEdgeStyle;rounded=0;orthogonalLoop=1;jettySize=auto;html=1;exitX=0.5;exitY=1;exitDx=0;exitDy=0;entryX=0.25;entryY=0;entryDx=0;entryDy=0;" edge="1" parent="1" source="SIeilRmWvHnYZnyjk7Ip-1" target="SIeilRmWvHnYZnyjk7Ip-3">
          <mxGeometry relative="1" as="geometry" />
        </mxCell>
        <mxCell id="SIeilRmWvHnYZnyjk7Ip-1" value="input" style="rounded=1;whiteSpace=wrap;html=1;fillColor=#ffe6cc;strokeColor=#d79b00;fontStyle=1" vertex="1" parent="1">
          <mxGeometry x="350" y="140" width="120" height="60" as="geometry" />
        </mxCell>
        <mxCell id="SIeilRmWvHnYZnyjk7Ip-10" style="edgeStyle=orthogonalEdgeStyle;rounded=0;orthogonalLoop=1;jettySize=auto;html=1;exitX=0.5;exitY=1;exitDx=0;exitDy=0;entryX=0.75;entryY=0;entryDx=0;entryDy=0;" edge="1" parent="1" source="SIeilRmWvHnYZnyjk7Ip-2" target="SIeilRmWvHnYZnyjk7Ip-3">
          <mxGeometry relative="1" as="geometry" />
        </mxCell>
        <mxCell id="SIeilRmWvHnYZnyjk7Ip-2" value="hidden" style="rounded=1;whiteSpace=wrap;html=1;fillColor=#ffe6cc;strokeColor=#d79b00;fontStyle=1" vertex="1" parent="1">
          <mxGeometry x="540" y="140" width="120" height="60" as="geometry" />
        </mxCell>
        <mxCell id="SIeilRmWvHnYZnyjk7Ip-11" style="edgeStyle=orthogonalEdgeStyle;rounded=0;orthogonalLoop=1;jettySize=auto;html=1;exitX=0.25;exitY=1;exitDx=0;exitDy=0;entryX=0.5;entryY=0;entryDx=0;entryDy=0;" edge="1" parent="1" source="SIeilRmWvHnYZnyjk7Ip-3" target="SIeilRmWvHnYZnyjk7Ip-4">
          <mxGeometry relative="1" as="geometry">
            <Array as="points">
              <mxPoint x="473" y="314" />
              <mxPoint x="410" y="314" />
            </Array>
          </mxGeometry>
        </mxCell>
        <mxCell id="SIeilRmWvHnYZnyjk7Ip-12" style="edgeStyle=orthogonalEdgeStyle;rounded=0;orthogonalLoop=1;jettySize=auto;html=1;exitX=0.75;exitY=1;exitDx=0;exitDy=0;entryX=0.5;entryY=0;entryDx=0;entryDy=0;" edge="1" parent="1" source="SIeilRmWvHnYZnyjk7Ip-3" target="SIeilRmWvHnYZnyjk7Ip-5">
          <mxGeometry relative="1" as="geometry">
            <Array as="points">
              <mxPoint x="533" y="314" />
              <mxPoint x="600" y="314" />
            </Array>
          </mxGeometry>
        </mxCell>
        <mxCell id="SIeilRmWvHnYZnyjk7Ip-3" value="combined" style="rounded=1;whiteSpace=wrap;html=1;fillColor=#ffe6cc;strokeColor=#d79b00;fontStyle=1" vertex="1" parent="1">
          <mxGeometry x="443" y="234" width="120" height="60" as="geometry" />
        </mxCell>
        <mxCell id="SIeilRmWvHnYZnyjk7Ip-14" style="edgeStyle=orthogonalEdgeStyle;rounded=0;orthogonalLoop=1;jettySize=auto;html=1;exitX=0.5;exitY=1;exitDx=0;exitDy=0;entryX=0.5;entryY=0;entryDx=0;entryDy=0;" edge="1" parent="1" source="SIeilRmWvHnYZnyjk7Ip-4" target="SIeilRmWvHnYZnyjk7Ip-6">
          <mxGeometry relative="1" as="geometry" />
        </mxCell>
        <mxCell id="SIeilRmWvHnYZnyjk7Ip-4" value="i2o" style="rounded=1;whiteSpace=wrap;html=1;fillColor=#dae8fc;strokeColor=#6c8ebf;fontStyle=1" vertex="1" parent="1">
          <mxGeometry x="350" y="335" width="120" height="60" as="geometry" />
        </mxCell>
        <mxCell id="SIeilRmWvHnYZnyjk7Ip-16" style="edgeStyle=orthogonalEdgeStyle;rounded=0;orthogonalLoop=1;jettySize=auto;html=1;exitX=0.5;exitY=1;exitDx=0;exitDy=0;entryX=0.5;entryY=0;entryDx=0;entryDy=0;" edge="1" parent="1" source="SIeilRmWvHnYZnyjk7Ip-5" target="SIeilRmWvHnYZnyjk7Ip-8">
          <mxGeometry relative="1" as="geometry" />
        </mxCell>
        <mxCell id="SIeilRmWvHnYZnyjk7Ip-5" value="i2h" style="rounded=1;whiteSpace=wrap;html=1;fillColor=#dae8fc;strokeColor=#6c8ebf;fontStyle=1" vertex="1" parent="1">
          <mxGeometry x="540" y="335" width="120" height="60" as="geometry" />
        </mxCell>
        <mxCell id="SIeilRmWvHnYZnyjk7Ip-15" style="edgeStyle=orthogonalEdgeStyle;rounded=0;orthogonalLoop=1;jettySize=auto;html=1;exitX=0.5;exitY=1;exitDx=0;exitDy=0;entryX=0.5;entryY=0;entryDx=0;entryDy=0;" edge="1" parent="1" source="SIeilRmWvHnYZnyjk7Ip-6" target="SIeilRmWvHnYZnyjk7Ip-7">
          <mxGeometry relative="1" as="geometry" />
        </mxCell>
        <mxCell id="SIeilRmWvHnYZnyjk7Ip-6" value="softmax" style="rounded=1;whiteSpace=wrap;html=1;fillColor=#d5e8d4;strokeColor=#82b366;fontStyle=1" vertex="1" parent="1">
          <mxGeometry x="350" y="435" width="120" height="60" as="geometry" />
        </mxCell>
        <mxCell id="SIeilRmWvHnYZnyjk7Ip-7" value="output" style="rounded=1;whiteSpace=wrap;html=1;fillColor=#ffe6cc;strokeColor=#d79b00;fontStyle=1" vertex="1" parent="1">
          <mxGeometry x="350" y="535" width="120" height="60" as="geometry" />
        </mxCell>
        <mxCell id="SIeilRmWvHnYZnyjk7Ip-17" style="edgeStyle=orthogonalEdgeStyle;rounded=0;orthogonalLoop=1;jettySize=auto;html=1;exitX=1;exitY=0.5;exitDx=0;exitDy=0;entryX=1;entryY=0.5;entryDx=0;entryDy=0;" edge="1" parent="1" source="SIeilRmWvHnYZnyjk7Ip-8" target="SIeilRmWvHnYZnyjk7Ip-2">
          <mxGeometry relative="1" as="geometry">
            <Array as="points">
              <mxPoint x="690" y="565" />
              <mxPoint x="690" y="170" />
            </Array>
          </mxGeometry>
        </mxCell>
        <mxCell id="SIeilRmWvHnYZnyjk7Ip-8" value="hidden" style="rounded=1;whiteSpace=wrap;html=1;fillColor=#ffe6cc;strokeColor=#d79b00;fontStyle=1" vertex="1" parent="1">
          <mxGeometry x="540" y="535" width="120" height="60" as="geometry" />
        </mxCell>
        <mxCell id="SIeilRmWvHnYZnyjk7Ip-18" value="hidden layer:" style="text;html=1;align=center;verticalAlign=middle;resizable=0;points=[];autosize=1;strokeColor=none;fillColor=none;" vertex="1" parent="1">
          <mxGeometry x="250" y="350" width="90" height="30" as="geometry" />
        </mxCell>
        <mxCell id="SIeilRmWvHnYZnyjk7Ip-19" value="classification task:" style="text;html=1;align=center;verticalAlign=middle;resizable=0;points=[];autosize=1;strokeColor=none;fillColor=none;" vertex="1" parent="1">
          <mxGeometry x="230" y="450" width="120" height="30" as="geometry" />
        </mxCell>
      </root>
    </mxGraphModel>
  </diagram>
</mxfile>
